<?xml version="1.0" encoding="UTF-8"?>
<svg id="_레이어_1" data-name="레이어_1" xmlns="http://www.w3.org/2000/svg" version="1.1" viewBox="0 0 640 640">
  <!-- Generator: Adobe Illustrator 29.5.1, SVG Export Plug-In . SVG Version: 2.1.0 Build 141)  -->
  <defs>
    <style>
      .st0 {
        fill: #fff;
      }
    </style>
  </defs>
  <path class="st0" d="M579.7,544.83h-39.68v-200.99h3.13c10.36,0,18.76-8.39,18.76-18.75s-8.4-18.77-18.76-18.77h-84.42c-10.36,0-18.76,8.4-18.76,18.77s8.4,18.75,18.76,18.75h3.12v200.99h-104.74v-135.17h33.77c7.01,0,13.34-4.23,16.02-10.7,2.68-6.49,1.21-13.94-3.76-18.9l-72.84-72.84c-6.77-6.78-17.76-6.78-24.52,0l-72.84,72.84c-4.97,4.96-6.44,12.41-3.76,18.9,2.68,6.48,9.01,10.7,16.02,10.7h33.75v135.17h-104.74v-200.99h3.13c10.36,0,18.76-8.39,18.76-18.75s-8.4-18.77-18.76-18.77h-84.42c-10.36,0-18.76,8.4-18.76,18.77s8.4,18.75,18.76,18.75h3.12v200.99h-39.67c-18.39,0-33.3,14.92-33.3,33.3s14.91,33.3,33.3,33.3h523.34c18.39,0,33.3-14.9,33.3-33.3s-14.91-33.3-33.3-33.3Z"/>
  <path class="st0" d="M65.88,277.28h504.3c18.9,0,35.57-12.4,41.01-30.5,5.44-18.1-1.63-37.63-17.4-48.05L341.63,32.13c-14.32-9.46-32.9-9.46-47.21,0L42.27,198.74c-15.77,10.42-22.84,29.94-17.4,48.05,5.43,18.1,22.11,30.5,41.01,30.5ZM318.03,125.95c22.99,0,41.62,18.64,41.62,41.62s-18.64,41.62-41.62,41.62-41.62-18.63-41.62-41.62,18.64-41.62,41.62-41.62Z"/>
</svg>