<?xml version="1.0" encoding="UTF-8"?>
<svg id="_레이어_1" data-name="레이어_1" xmlns="http://www.w3.org/2000/svg" version="1.1" viewBox="0 0 640 640">
  <!-- Generator: Adobe Illustrator 29.5.1, SVG Export Plug-In . SVG Version: 2.1.0 Build 141)  -->
  <defs>
    <style>
      .st0 {
        fill: #fff;
      }
    </style>
  </defs>
  <path class="st0" d="M531.13,121.48H102.87c-33.01,0-59.87,24.84-59.87,55.36v277.11c0,30.53,26.86,55.36,59.87,55.36h428.27c33.01,0,59.87-24.83,59.87-55.36V176.85c0-30.53-26.86-55.36-59.87-55.36ZM102.87,156.17h428.27c12.33,0,22.35,9.27,22.35,20.67v31.01H80.52v-31.01c0-11.4,10.02-20.67,22.35-20.67ZM531.13,474.63H102.87c-12.33,0-22.35-9.27-22.35-20.67v-166.31h472.96v166.31c0,11.4-10.02,20.67-22.35,20.67Z"/>
  <rect class="st0" x="408.63" y="389.89" width="100.69" height="40.97"/>
  <g>
    <path class="st0" d="M205.24,345.2c0,8.23-7.21,14.9-16.11,14.9h-40.28c-8.9,0-16.11-6.67-16.11-14.9h0c0-8.23,7.21-14.9,16.11-14.9h40.28c8.9,0,16.11,6.67,16.11,14.9h0Z"/>
    <path class="st0" d="M303.91,345.2c0,8.23-7.21,14.9-16.11,14.9h-40.28c-8.9,0-16.11-6.67-16.11-14.9h0c0-8.23,7.21-14.9,16.11-14.9h40.28c8.9,0,16.11,6.67,16.11,14.9h0Z"/>
    <path class="st0" d="M402.59,345.2c0,8.23-7.21,14.9-16.11,14.9h-40.28c-8.9,0-16.11-6.67-16.11-14.9h0c0-8.23,7.21-14.9,16.11-14.9h40.28c8.9,0,16.11,6.67,16.11,14.9h0Z"/>
    <path class="st0" d="M501.26,345.2c0,8.23-7.21,14.9-16.11,14.9h-40.28c-8.9,0-16.11-6.67-16.11-14.9h0c0-8.23,7.21-14.9,16.11-14.9h40.28c8.9,0,16.11,6.67,16.11,14.9h0Z"/>
  </g>
</svg>