<?xml version="1.0" encoding="UTF-8"?>
<svg id="_레이어_1" data-name="레이어_1" xmlns="http://www.w3.org/2000/svg" version="1.1" viewBox="0 0 640 640">
  <!-- Generator: Adobe Illustrator 29.5.1, SVG Export Plug-In . SVG Version: 2.1.0 Build 141)  -->
  <defs>
    <style>
      .st0 {
        fill: #fff;
      }
    </style>
  </defs>
  <g>
    <path class="st0" d="M195.23,158.09c16.5,0,29.87-13.38,29.87-29.87v-8.45h42.18v-52.72h-42.18v-9.12c0-16.5-13.38-29.87-29.87-29.87s-29.87,13.38-29.87,29.87v70.3c0,16.5,13.38,29.87,29.87,29.87Z"/>
    <path class="st0" d="M320,158.09c16.5,0,29.88-13.38,29.88-29.87v-8.45h42.18v-52.72h-42.18v-9.12c0-16.5-13.38-29.87-29.88-29.87s-29.87,13.38-29.87,29.87v70.3c0,16.5,13.38,29.87,29.87,29.87Z"/>
    <path class="st0" d="M542.42,67.04h-67.76v-9.12c0-16.5-13.38-29.87-29.87-29.87s-29.87,13.38-29.87,29.87v70.3c0,16.5,13.38,29.87,29.87,29.87s29.87-13.38,29.87-29.87v-8.45h41.4v440.56H123.94V119.76h18.56v-52.72h-44.92c-14.56,0-26.36,11.8-26.36,26.36v493.28c0,14.56,11.81,26.36,26.36,26.36h444.84c14.56,0,26.36-11.8,26.36-26.36V93.4c0-14.56-11.8-26.36-26.36-26.36Z"/>
  </g>
  <path class="st0" d="M449.85,259.35c0,13.3-10.78,24.08-24.08,24.08h-211.54c-13.3,0-24.08-10.78-24.08-24.08h0c0-13.29,10.78-24.08,24.08-24.08h211.54c13.3,0,24.08,10.78,24.08,24.08h0Z"/>
  <path class="st0" d="M449.85,357.37c0,13.3-10.78,24.08-24.08,24.08h-211.54c-13.3,0-24.08-10.78-24.08-24.08h0c0-13.29,10.78-24.08,24.08-24.08h211.54c13.3,0,24.08,10.78,24.08,24.08h0Z"/>
  <path class="st0" d="M449.85,455.4c0,13.3-10.78,24.08-24.08,24.08h-211.54c-13.3,0-24.08-10.78-24.08-24.08h0c0-13.29,10.78-24.08,24.08-24.08h211.54c13.3,0,24.08,10.78,24.08,24.08h0Z"/>
</svg>