<svg width="48" height="48" viewBox="0 0 48 48" fill="none" xmlns="http://www.w3.org/2000/svg">
<path d="M37.5 9.75H10.5C8.85 9.75 7.5 11.1 7.5 12.75V24.75H10.5V12.75H37.5V36.75C39.15 36.75 40.5 35.4 40.5 33.75V12.75C40.5 11.1 39.15 9.75 37.5 9.75Z" fill="black"/>
<path d="M25.5 20.25C25.5 16.935 22.815 14.25 19.5 14.25C16.185 14.25 13.5 16.935 13.5 20.25C13.5 23.565 16.185 26.25 19.5 26.25C22.815 26.25 25.5 23.565 25.5 20.25ZM16.5 20.25C16.5 18.6 17.85 17.25 19.5 17.25C21.15 17.25 22.5 18.6 22.5 20.25C22.5 21.9 21.15 23.25 19.5 23.25C17.85 23.25 16.5 21.9 16.5 20.25Z" fill="black"/>
<path d="M29.085 30.09C26.565 28.8 23.295 27.75 19.5 27.75C15.705 27.75 12.435 28.8 9.915 30.09C8.415 30.855 7.5 32.4 7.5 34.08V38.25H31.5V34.08C31.5 32.4 30.585 30.855 29.085 30.09ZM28.5 35.25H10.5C10.5 34.17 10.35 33.24 11.28 32.76C13.065 31.845 15.945 30.75 19.5 30.75C23.055 30.75 25.935 31.845 27.72 32.76C28.665 33.24 28.5 34.185 28.5 35.25Z" fill="black"/>
</svg>
