<svg width="48" height="48" viewBox="0 0 48 48" fill="none" xmlns="http://www.w3.org/2000/svg">
<path d="M11.7295 21.625C10.4153 21.625 9.35449 22.6858 9.35449 24C9.35449 25.3142 10.4153 26.375 11.7295 26.375C13.0437 26.375 14.1045 25.3142 14.1045 24C14.1045 22.6858 13.0437 21.625 11.7295 21.625ZM11.7295 12.125C10.4153 12.125 9.35449 13.1858 9.35449 14.5C9.35449 15.8142 10.4153 16.875 11.7295 16.875C13.0437 16.875 14.1045 15.8142 14.1045 14.5C14.1045 13.1858 13.0437 12.125 11.7295 12.125ZM11.7295 31.125C10.4153 31.125 9.35449 32.2017 9.35449 33.5C9.35449 34.7983 10.4312 35.875 11.7295 35.875C13.0278 35.875 14.1045 34.7983 14.1045 33.5C14.1045 32.2017 13.0437 31.125 11.7295 31.125ZM16.4795 35.0833H38.6462V31.9167H16.4795V35.0833ZM16.4795 25.5833H38.6462V22.4167H16.4795V25.5833ZM16.4795 12.9167V16.0833H38.6462V12.9167H16.4795Z" fill="black"/>
</svg>
