<svg width="48" height="48" viewBox="0 0 48 48" fill="none" xmlns="http://www.w3.org/2000/svg">
<path fill-rule="evenodd" clip-rule="evenodd" d="M37.333 9H10.6663C8.83301 9 7.33301 10.5 7.33301 12.3333V35.6667C7.33301 37.5 8.83301 39 10.6663 39H37.333C39.1663 39 40.6663 37.5 40.6663 35.6667V12.3333C40.6663 10.5 39.1663 9 37.333 9ZM37.333 35.6667H10.6663V12.3333H37.333V35.6667Z" fill="black"/>
<path fill-rule="evenodd" clip-rule="evenodd" d="M36.3497 21.3667L33.983 19L28.6997 24.2833L26.3497 21.9167L23.9997 24.2667L28.6997 29L36.3497 21.3667Z" fill="black"/>
<path d="M20.6663 15.6667H12.333V19H20.6663V15.6667Z" fill="black"/>
<path d="M20.6663 22.3333H12.333V25.6667H20.6663V22.3333Z" fill="black"/>
<path d="M20.6663 29H12.333V32.3333H20.6663V29Z" fill="black"/>
</svg>
