<svg width="48" height="48" viewBox="0 0 48 48" fill="none" xmlns="http://www.w3.org/2000/svg">
<path d="M36.667 14.5002H24.0003L20.8337 11.3335H11.3337C9.59199 11.3335 8.16699 12.7585 8.16699 14.5002V33.5002C8.16699 35.2418 9.59199 36.6668 11.3337 36.6668H36.667C38.4087 36.6668 39.8337 35.2418 39.8337 33.5002V17.6668C39.8337 15.9252 38.4087 14.5002 36.667 14.5002ZM36.667 33.5002H11.3337V14.5002H19.5195L22.6862 17.6668H36.667V33.5002ZM25.7103 27.2302L24.6178 31.9168L28.7503 29.4943L32.8828 31.9168L31.7903 27.2302L35.432 24.0793L30.6345 23.6677L28.7503 19.2502L26.8662 23.6677L22.0687 24.0793L25.7103 27.2302Z" fill="black"/>
</svg>
