<svg width="48" height="48" viewBox="0 0 48 48" fill="none" xmlns="http://www.w3.org/2000/svg">
<path d="M28.5044 22.4164H39.7936C39.0494 14.9431 33.0961 8.98977 25.6227 8.24561V19.5348C26.9686 20.0256 28.0136 21.0706 28.5044 22.4164ZM28.7894 12.2514C31.9561 13.5498 34.4894 16.0831 35.7877 19.2498H30.3569C29.9136 18.6639 29.3752 18.1256 28.7894 17.6823V12.2514ZM8.20605 23.9998C8.20605 32.2173 14.4602 38.9623 22.4561 39.7539V28.4648C20.6194 27.7998 19.2894 26.0581 19.2894 23.9998C19.2894 21.9414 20.6194 20.1998 22.4561 19.5348V8.24561C14.4602 9.03727 8.20605 15.7823 8.20605 23.9998ZM19.2894 12.2514V17.6981C17.3419 19.1548 16.1227 21.4823 16.1227 23.9998C16.1227 26.5173 17.3419 28.8448 19.2894 30.3173V35.7639C14.6027 33.8798 11.3727 29.3039 11.3727 23.9998C11.3727 18.6956 14.6027 14.1198 19.2894 12.2514ZM25.6227 28.4648V39.7539C33.0961 39.0098 39.0494 33.0564 39.7936 25.5831H28.5044C28.0136 26.9289 26.9686 27.9739 25.6227 28.4648ZM28.7894 30.3173C29.3752 29.8739 29.9136 29.3514 30.3569 28.7498H35.7877C34.4894 31.9164 31.9561 34.4498 28.7894 35.7481V30.3173Z" fill="black"/>
</svg>
