<svg width="48" height="48" viewBox="0 0 48 48" fill="none" xmlns="http://www.w3.org/2000/svg">
<path d="M28.5 26.25L25.5 26.25L25.5 21.75L28.5 21.75L28.5 18L31.5 18L31.5 21.75L40.5 21.75L40.5 11.25L31.5 11.25L31.5 15L28.5 15L28.5 11.25L19.5 11.25L19.5 15L16.5 15L16.5 11.25L7.5 11.25L7.5 21.75L16.5 21.75L16.5 18L19.5 18L19.5 21.75L22.5 21.75L22.5 26.25L19.5 26.25L19.5 36.75L28.5 36.75L28.5 26.25ZM37.5 14.25L37.5 18.75L34.5 18.75L34.5 14.25L37.5 14.25ZM10.5 18.75L10.5 14.25L13.5 14.25L13.5 18.75L10.5 18.75ZM22.5 18.75L22.5 14.25L25.5 14.25L25.5 18.75L22.5 18.75ZM22.5 33.75L22.5 29.25L25.5 29.25L25.5 33.75L22.5 33.75Z" fill="black"/>
</svg>
