<svg width="48" height="48" viewBox="0 0 48 48" fill="none" xmlns="http://www.w3.org/2000/svg">
<path d="M39.2967 18.5893L29.6167 17.7493L25.8367 8.84928C25.1567 7.22928 22.8367 7.22928 22.1567 8.84928L18.3767 17.7693L8.71673 18.5893C6.95673 18.7293 6.23673 20.9293 7.57673 22.0893L14.9167 28.4493L12.7167 37.8893C12.3167 39.6093 14.1767 40.9693 15.6967 40.0493L23.9967 35.0493L32.2967 40.0693C33.8167 40.9893 35.6767 39.6293 35.2767 37.9093L33.0767 28.4493L40.4167 22.0893C41.7567 20.9293 41.0567 18.7293 39.2967 18.5893ZM23.9967 31.3093L16.4767 35.8493L18.4767 27.2893L11.8367 21.5293L20.5967 20.7693L23.9967 12.7093L27.4167 20.7893L36.1767 21.5493L29.5367 27.3093L31.5367 35.8693L23.9967 31.3093Z" fill="black"/>
</svg>
