<?xml version="1.0" encoding="UTF-8"?>
<svg id="_레이어_1" data-name="레이어_1" xmlns="http://www.w3.org/2000/svg" version="1.1" viewBox="0 0 24 24">
  <!-- Generator: Adobe Illustrator 29.5.1, SVG Export Plug-In . SVG Version: 2.1.0 Build 141)  -->
  <defs>
    <style>
      .st0 {
        fill: #fff;
      }
    </style>
  </defs>
  <path class="st0" d="M5,4v6.03-.03,10V4v5-5ZM5,22c-.55,0-1.02-.2-1.41-.59-.39-.39-.59-.86-.59-1.41V4c0-.55.2-1.02.59-1.41.39-.39.86-.59,1.41-.59h8l6,6v2.5c-.32-.13-.64-.24-.98-.31s-.68-.13-1.03-.16v-1.03h-5v-5h-7v16h6.03c.27.4.57.77.9,1.11.33.34.7.64,1.1.89H5ZM16.5,19c.7,0,1.29-.24,1.78-.73s.73-1.08.73-1.78-.24-1.29-.73-1.78-1.08-.73-1.78-.73-1.29.24-1.78.73-.73,1.08-.73,1.78.24,1.29.73,1.78,1.08.73,1.78.73ZM21.6,23l-2.7-2.7c-.35.23-.73.41-1.14.53-.41.12-.83.18-1.26.18-1.25,0-2.31-.44-3.19-1.31s-1.31-1.94-1.31-3.19.44-2.31,1.31-3.19,1.94-1.31,3.19-1.31,2.31.44,3.19,1.31,1.31,1.94,1.31,3.19c0,.43-.06.85-.18,1.26-.12.41-.29.79-.53,1.14l2.7,2.7-1.4,1.4Z"/>
</svg>