<?xml version="1.0" encoding="UTF-8"?>
<svg id="_레이어_1" data-name="레이어_1" xmlns="http://www.w3.org/2000/svg" version="1.1" viewBox="0 0 24 24">
  <!-- Generator: Adobe Illustrator 29.5.1, SVG Export Plug-In . SVG Version: 2.1.0 Build 141)  -->
  <defs>
    <style>
      .st0 {
        fill: #fff;
      }
    </style>
  </defs>
  <path class="st0" d="M21,7v12c0,.55-.2,1.02-.59,1.41-.39.39-.86.59-1.41.59H5c-.55,0-1.02-.2-1.41-.59-.39-.39-.59-.86-.59-1.41V5c0-.55.2-1.02.59-1.41.39-.39.86-.59,1.41-.59h12l4,4ZM19,7.85l-2.85-2.85H5v14h14V7.85ZM12,18c.83,0,1.54-.29,2.13-.88.58-.58.88-1.29.88-2.13s-.29-1.54-.88-2.13-1.29-.88-2.13-.88-1.54.29-2.13.88-.88,1.29-.88,2.13.29,1.54.88,2.13c.58.58,1.29.88,2.13.88ZM6,10h9v-4H6v4ZM5,7.85v11.15V5v2.85Z"/>
</svg>