<?xml version="1.0" encoding="UTF-8"?>
<svg id="_레이어_1" data-name="레이어_1" xmlns="http://www.w3.org/2000/svg" version="1.1" viewBox="0 0 24 24">
  <!-- Generator: Adobe Illustrator 29.5.1, SVG Export Plug-In . SVG Version: 2.1.0 Build 141)  -->
  <defs>
    <style>
      .st0 {
        fill: #fff;
      }
    </style>
  </defs>
  <path class="st0" d="M16,11v-5h2v5h-2ZM11,17.9c-.58-.17-1.06-.49-1.44-.98s-.56-1.04-.56-1.68V6h2v11.9ZM11.75,22c-1.73,0-3.21-.61-4.43-1.83-1.22-1.22-1.83-2.69-1.83-4.43V6.5c0-1.25.44-2.31,1.31-3.19s1.94-1.31,3.19-1.31,2.31.44,3.19,1.31,1.31,1.94,1.31,3.19v7.5h-2v-7.5c-.02-.7-.26-1.29-.74-1.78s-1.06-.73-1.76-.73-1.29.24-1.78.73-.73,1.08-.73,1.78v9.25c-.02,1.18.39,2.19,1.23,3.01s1.84,1.24,3.03,1.24c.42,0,.81-.05,1.19-.16s.73-.27,1.06-.49v2.23c-.35.13-.71.24-1.09.31s-.76.11-1.16.11ZM16,21v-3h-3v-2h3v-3h2v3h3v2h-3v3h-2Z"/>
</svg>